# xmcd
#
# Track frame offsets: 
#        150
#        28716
#        53404
#        71077
#        96302
#        121015
#        157890
#        172558
#        204982
#        227340
#        247232
#
# Disc length: 3800 seconds
#
# Revision: 0
# Processed by: cddbd v1.5.2PL0 Copyright (c) Steve Scherf et al.
# Submitted via: ExactAudioCopy v0.99pb5
#
DISCID=7e0ed60b
DTITLE=Davey and the Blu Dog - Play Your Blues Away
DYEAR=2010
DGENRE=Blues
TTITLE0=Play Your Blues Away
TTITLE1=Shut Out
TTITLE2=Drive Too Fast
TTITLE3=Slow Down
TTITLE4=Summertime
TTITLE5=Nuthin But Trouble
TTITLE6=Grit My Teeth
TTITLE7=Lonesome Breakfast
TTITLE8=Rebel Woman Blues
TTITLE9=Soul of a Man
TTITLE10=Lord Lord Lord
EXTD=
EXTT0=
EXTT1=
EXTT2=
EXTT3=
EXTT4=
EXTT5=
EXTT6=
EXTT7=
EXTT8=
EXTT9=
EXTT10=
PLAYORDER=
